<?xml version="1.0" standalone="no"?>
<!DOCTYPE svg PUBLIC "-//W3C//DTD SVG 20010904//EN"
 "http://www.w3.org/TR/2001/REC-SVG-20010904/DTD/svg10.dtd">
<svg version="1.0" xmlns="http://www.w3.org/2000/svg"
 width="1200.000000pt" height="630.000000pt" viewBox="0 0 1200.000000 630.000000"
 preserveAspectRatio="xMidYMid meet">
<metadata>
Created by potrace 1.16, written by Peter Selinger 2001-2019
</metadata>
<g transform="translate(0.000000,630.000000) scale(0.100000,-0.100000)"
fill="#000000" stroke="none">
<path d="M3882 4974 c-52 -36 -50 5 -53 -1094 -4 -954 -3 -1028 13 -1052 16
-25 357 -228 442 -263 46 -19 90 -8 127 31 l24 26 5 619 5 619 31 31 c23 23
44 33 77 36 44 5 55 0 414 -208 309 -179 374 -213 408 -213 34 0 93 30 400
208 391 226 411 235 473 196 59 -37 62 -54 62 -413 l0 -324 -462 -265 -463
-266 -3 -334 c-3 -294 -1 -337 14 -365 13 -26 113 -87 604 -367 460 -263 595
-336 621 -336 44 1 1490 830 1523 873 21 28 21 35 24 678 2 430 -1 663 -8 689
-13 49 -58 83 -110 83 -31 0 -80 -24 -247 -120 -114 -66 -217 -133 -228 -147
-19 -26 -20 -46 -25 -419 -5 -409 -6 -417 -49 -444 -109 -68 -843 -483 -862
-488 -36 -9 -70 7 -296 136 -205 117 -225 135 -225 204 0 72 8 78 401 304 285
164 375 220 386 242 13 24 15 173 15 1058 l0 1031 -28 31 c-21 23 -39 32 -72
36 -44 5 -58 -3 -475 -242 -970 -557 -930 -535 -971 -535 -32 0 -106 39 -434
227 -980 562 -963 553 -1000 553 -20 0 -46 -7 -58 -16z"/>
<path d="M8011 4979 c-13 -5 -111 -62 -216 -125 -126 -76 -197 -125 -208 -144
-15 -24 -17 -63 -17 -283 0 -243 1 -256 21 -281 30 -38 75 -59 113 -52 44 9
415 235 440 269 20 27 21 43 24 265 3 259 -3 300 -48 333 -32 24 -78 31 -109
18z"/>
</g>
</svg>
